<mxfile host="app.diagrams.net" modified="2024-05-05T22:37:15.385Z" agent="Mozilla/5.0 (Windows NT 10.0; Win64; x64) AppleWebKit/537.36 (KHTML, like Gecko) Chrome/124.0.0.0 Safari/537.36" etag="fIneC_2gjfvwD5fNpYtc" version="24.3.1" type="device">
  <diagram name="Page-1" id="wDfdnWKK7Jvyjt_zK6e5">
    <mxGraphModel dx="880" dy="434" grid="1" gridSize="10" guides="1" tooltips="1" connect="1" arrows="1" fold="1" page="1" pageScale="1" pageWidth="850" pageHeight="1100" math="0" shadow="0">
      <root>
        <mxCell id="0" />
        <mxCell id="1" parent="0" />
        <mxCell id="R2jZjn0u4yPaKpYKtleS-1" value="Send Feedback" style="ellipse;whiteSpace=wrap;html=1;" vertex="1" parent="1">
          <mxGeometry x="570" y="400" width="140" height="60" as="geometry" />
        </mxCell>
        <mxCell id="R2jZjn0u4yPaKpYKtleS-2" value="Configure Firewall" style="ellipse;whiteSpace=wrap;html=1;" vertex="1" parent="1">
          <mxGeometry x="560" y="300" width="150" height="60" as="geometry" />
        </mxCell>
        <mxCell id="R2jZjn0u4yPaKpYKtleS-3" value="Configure Router" style="ellipse;whiteSpace=wrap;html=1;" vertex="1" parent="1">
          <mxGeometry x="550" y="210" width="160" height="50" as="geometry" />
        </mxCell>
        <mxCell id="R2jZjn0u4yPaKpYKtleS-4" value="Configure Switch" style="ellipse;whiteSpace=wrap;html=1;" vertex="1" parent="1">
          <mxGeometry x="550" y="100" width="160" height="50" as="geometry" />
        </mxCell>
        <mxCell id="R2jZjn0u4yPaKpYKtleS-5" value="Configure Network Devices" style="ellipse;whiteSpace=wrap;html=1;" vertex="1" parent="1">
          <mxGeometry x="270" y="200" width="180" height="60" as="geometry" />
        </mxCell>
        <mxCell id="R2jZjn0u4yPaKpYKtleS-6" value="Mange User Accounts" style="ellipse;whiteSpace=wrap;html=1;" vertex="1" parent="1">
          <mxGeometry x="270" y="380" width="180" height="60" as="geometry" />
        </mxCell>
        <mxCell id="R2jZjn0u4yPaKpYKtleS-7" value="Perform Security Checks" style="ellipse;whiteSpace=wrap;html=1;" vertex="1" parent="1">
          <mxGeometry x="270" y="290" width="180" height="60" as="geometry" />
        </mxCell>
        <mxCell id="R2jZjn0u4yPaKpYKtleS-8" value="Generate Reports" style="ellipse;whiteSpace=wrap;html=1;" vertex="1" parent="1">
          <mxGeometry x="260" y="140" width="170" height="50" as="geometry" />
        </mxCell>
        <mxCell id="R2jZjn0u4yPaKpYKtleS-9" value="Monitor Network Status" style="ellipse;whiteSpace=wrap;html=1;" vertex="1" parent="1">
          <mxGeometry x="255" y="80" width="170" height="50" as="geometry" />
        </mxCell>
        <mxCell id="R2jZjn0u4yPaKpYKtleS-10" value="Update firmware" style="ellipse;whiteSpace=wrap;html=1;" vertex="1" parent="1">
          <mxGeometry x="270" y="470" width="180" height="60" as="geometry" />
        </mxCell>
        <mxCell id="R2jZjn0u4yPaKpYKtleS-11" value="View System Status" style="ellipse;whiteSpace=wrap;html=1;" vertex="1" parent="1">
          <mxGeometry x="280" y="560" width="170" height="60" as="geometry" />
        </mxCell>
        <mxCell id="R2jZjn0u4yPaKpYKtleS-12" value="Request IP Address" style="ellipse;whiteSpace=wrap;html=1;" vertex="1" parent="1">
          <mxGeometry x="285" y="650" width="160" height="60" as="geometry" />
        </mxCell>
        <mxCell id="R2jZjn0u4yPaKpYKtleS-13" value="Login/Logout" style="ellipse;whiteSpace=wrap;html=1;" vertex="1" parent="1">
          <mxGeometry x="285" y="730" width="160" height="60" as="geometry" />
        </mxCell>
        <mxCell id="R2jZjn0u4yPaKpYKtleS-14" value="Network Administrator" style="shape=umlActor;verticalLabelPosition=bottom;verticalAlign=top;html=1;outlineConnect=0;" vertex="1" parent="1">
          <mxGeometry x="100" y="310" width="30" height="60" as="geometry" />
        </mxCell>
        <mxCell id="R2jZjn0u4yPaKpYKtleS-15" value="User" style="shape=umlActor;verticalLabelPosition=bottom;verticalAlign=top;html=1;outlineConnect=0;" vertex="1" parent="1">
          <mxGeometry x="800" y="470" width="30" height="60" as="geometry" />
        </mxCell>
        <mxCell id="R2jZjn0u4yPaKpYKtleS-23" value="" style="endArrow=classic;html=1;rounded=0;entryX=0.024;entryY=0.74;entryDx=0;entryDy=0;entryPerimeter=0;exitX=0.25;exitY=0.1;exitDx=0;exitDy=0;exitPerimeter=0;" edge="1" parent="1" source="R2jZjn0u4yPaKpYKtleS-14" target="R2jZjn0u4yPaKpYKtleS-9">
          <mxGeometry width="50" height="50" relative="1" as="geometry">
            <mxPoint x="120" y="300" as="sourcePoint" />
            <mxPoint x="170" y="250" as="targetPoint" />
          </mxGeometry>
        </mxCell>
        <mxCell id="R2jZjn0u4yPaKpYKtleS-24" value="" style="endArrow=classic;html=1;rounded=0;entryX=0;entryY=0.5;entryDx=0;entryDy=0;exitX=0.75;exitY=0.1;exitDx=0;exitDy=0;exitPerimeter=0;" edge="1" parent="1" source="R2jZjn0u4yPaKpYKtleS-14" target="R2jZjn0u4yPaKpYKtleS-8">
          <mxGeometry width="50" height="50" relative="1" as="geometry">
            <mxPoint x="130" y="310" as="sourcePoint" />
            <mxPoint x="284" y="97" as="targetPoint" />
          </mxGeometry>
        </mxCell>
        <mxCell id="R2jZjn0u4yPaKpYKtleS-25" value="" style="endArrow=classic;html=1;rounded=0;entryX=0;entryY=0.5;entryDx=0;entryDy=0;" edge="1" parent="1" source="R2jZjn0u4yPaKpYKtleS-14" target="R2jZjn0u4yPaKpYKtleS-5">
          <mxGeometry width="50" height="50" relative="1" as="geometry">
            <mxPoint x="140" y="320" as="sourcePoint" />
            <mxPoint x="280" y="155" as="targetPoint" />
          </mxGeometry>
        </mxCell>
        <mxCell id="R2jZjn0u4yPaKpYKtleS-26" value="" style="endArrow=classic;html=1;rounded=0;entryX=0;entryY=0.5;entryDx=0;entryDy=0;" edge="1" parent="1" source="R2jZjn0u4yPaKpYKtleS-14" target="R2jZjn0u4yPaKpYKtleS-7">
          <mxGeometry width="50" height="50" relative="1" as="geometry">
            <mxPoint x="150" y="330" as="sourcePoint" />
            <mxPoint x="280" y="240" as="targetPoint" />
          </mxGeometry>
        </mxCell>
        <mxCell id="R2jZjn0u4yPaKpYKtleS-27" value="" style="endArrow=classic;html=1;rounded=0;entryX=0;entryY=0.317;entryDx=0;entryDy=0;entryPerimeter=0;" edge="1" parent="1" source="R2jZjn0u4yPaKpYKtleS-14" target="R2jZjn0u4yPaKpYKtleS-6">
          <mxGeometry width="50" height="50" relative="1" as="geometry">
            <mxPoint x="160" y="340" as="sourcePoint" />
            <mxPoint x="280" y="330" as="targetPoint" />
          </mxGeometry>
        </mxCell>
        <mxCell id="R2jZjn0u4yPaKpYKtleS-28" value="" style="endArrow=classic;html=1;rounded=0;entryX=0.033;entryY=0.35;entryDx=0;entryDy=0;entryPerimeter=0;" edge="1" parent="1" source="R2jZjn0u4yPaKpYKtleS-14" target="R2jZjn0u4yPaKpYKtleS-10">
          <mxGeometry width="50" height="50" relative="1" as="geometry">
            <mxPoint x="170" y="350" as="sourcePoint" />
            <mxPoint x="280" y="409" as="targetPoint" />
          </mxGeometry>
        </mxCell>
        <mxCell id="R2jZjn0u4yPaKpYKtleS-29" value="Automation Tool(Ansible,Netmiko)" style="shape=umlActor;verticalLabelPosition=bottom;verticalAlign=top;html=1;outlineConnect=0;align=center;" vertex="1" parent="1">
          <mxGeometry x="80" y="540" width="30" height="60" as="geometry" />
        </mxCell>
        <mxCell id="R2jZjn0u4yPaKpYKtleS-30" value="" style="endArrow=classic;html=1;rounded=0;entryX=0;entryY=1;entryDx=0;entryDy=0;exitX=0.75;exitY=0.1;exitDx=0;exitDy=0;exitPerimeter=0;" edge="1" parent="1" source="R2jZjn0u4yPaKpYKtleS-29" target="R2jZjn0u4yPaKpYKtleS-8">
          <mxGeometry width="50" height="50" relative="1" as="geometry">
            <mxPoint x="120" y="540" as="sourcePoint" />
            <mxPoint x="170" y="490" as="targetPoint" />
          </mxGeometry>
        </mxCell>
        <mxCell id="R2jZjn0u4yPaKpYKtleS-31" value="" style="endArrow=classic;html=1;rounded=0;entryX=0;entryY=1;entryDx=0;entryDy=0;exitX=1;exitY=0.3333333333333333;exitDx=0;exitDy=0;exitPerimeter=0;" edge="1" parent="1" source="R2jZjn0u4yPaKpYKtleS-29" target="R2jZjn0u4yPaKpYKtleS-5">
          <mxGeometry width="50" height="50" relative="1" as="geometry">
            <mxPoint x="130" y="550" as="sourcePoint" />
            <mxPoint x="305" y="173" as="targetPoint" />
          </mxGeometry>
        </mxCell>
        <mxCell id="R2jZjn0u4yPaKpYKtleS-32" value="" style="endArrow=classic;html=1;rounded=0;entryX=0.078;entryY=0.85;entryDx=0;entryDy=0;entryPerimeter=0;exitX=1;exitY=1;exitDx=0;exitDy=0;exitPerimeter=0;" edge="1" parent="1" source="R2jZjn0u4yPaKpYKtleS-29" target="R2jZjn0u4yPaKpYKtleS-7">
          <mxGeometry width="50" height="50" relative="1" as="geometry">
            <mxPoint x="140" y="560" as="sourcePoint" />
            <mxPoint x="306" y="261" as="targetPoint" />
          </mxGeometry>
        </mxCell>
        <mxCell id="R2jZjn0u4yPaKpYKtleS-33" value="" style="endArrow=classic;html=1;rounded=0;" edge="1" parent="1" source="R2jZjn0u4yPaKpYKtleS-29" target="R2jZjn0u4yPaKpYKtleS-10">
          <mxGeometry width="50" height="50" relative="1" as="geometry">
            <mxPoint x="150" y="570" as="sourcePoint" />
            <mxPoint x="294" y="351" as="targetPoint" />
          </mxGeometry>
        </mxCell>
        <mxCell id="R2jZjn0u4yPaKpYKtleS-34" value="Include" style="endArrow=open;endSize=12;dashed=1;html=1;rounded=0;entryX=0.994;entryY=0.4;entryDx=0;entryDy=0;entryPerimeter=0;exitX=0.088;exitY=0.76;exitDx=0;exitDy=0;exitPerimeter=0;" edge="1" parent="1" source="R2jZjn0u4yPaKpYKtleS-4" target="R2jZjn0u4yPaKpYKtleS-5">
          <mxGeometry width="160" relative="1" as="geometry">
            <mxPoint x="350" y="270" as="sourcePoint" />
            <mxPoint x="510" y="270" as="targetPoint" />
          </mxGeometry>
        </mxCell>
        <mxCell id="R2jZjn0u4yPaKpYKtleS-35" value="Include" style="endArrow=open;endSize=12;dashed=1;html=1;rounded=0;entryX=1;entryY=0.5;entryDx=0;entryDy=0;" edge="1" parent="1" source="R2jZjn0u4yPaKpYKtleS-3" target="R2jZjn0u4yPaKpYKtleS-5">
          <mxGeometry width="160" relative="1" as="geometry">
            <mxPoint x="574" y="148" as="sourcePoint" />
            <mxPoint x="459" y="234" as="targetPoint" />
          </mxGeometry>
        </mxCell>
        <mxCell id="R2jZjn0u4yPaKpYKtleS-36" value="Include" style="endArrow=open;endSize=12;dashed=1;html=1;rounded=0;entryX=0.967;entryY=0.8;entryDx=0;entryDy=0;entryPerimeter=0;exitX=0.087;exitY=0.117;exitDx=0;exitDy=0;exitPerimeter=0;" edge="1" parent="1" source="R2jZjn0u4yPaKpYKtleS-2" target="R2jZjn0u4yPaKpYKtleS-5">
          <mxGeometry width="160" relative="1" as="geometry">
            <mxPoint x="560" y="245" as="sourcePoint" />
            <mxPoint x="469" y="244" as="targetPoint" />
          </mxGeometry>
        </mxCell>
        <mxCell id="R2jZjn0u4yPaKpYKtleS-37" value="Extend" style="endArrow=open;endSize=12;dashed=1;html=1;rounded=0;exitX=0;exitY=0.5;exitDx=0;exitDy=0;" edge="1" parent="1" source="R2jZjn0u4yPaKpYKtleS-1" target="R2jZjn0u4yPaKpYKtleS-5">
          <mxGeometry width="160" relative="1" as="geometry">
            <mxPoint x="583" y="317" as="sourcePoint" />
            <mxPoint x="479" y="254" as="targetPoint" />
          </mxGeometry>
        </mxCell>
        <mxCell id="R2jZjn0u4yPaKpYKtleS-38" value="Send Notification" style="ellipse;whiteSpace=wrap;html=1;" vertex="1" parent="1">
          <mxGeometry x="565" y="490" width="140" height="60" as="geometry" />
        </mxCell>
        <mxCell id="R2jZjn0u4yPaKpYKtleS-39" value="Schedule Task" style="ellipse;whiteSpace=wrap;html=1;" vertex="1" parent="1">
          <mxGeometry x="590" y="670" width="140" height="60" as="geometry" />
        </mxCell>
        <mxCell id="R2jZjn0u4yPaKpYKtleS-40" value="Include" style="endArrow=open;endSize=12;dashed=1;html=1;rounded=0;entryX=1;entryY=1;entryDx=0;entryDy=0;" edge="1" parent="1" source="R2jZjn0u4yPaKpYKtleS-38" target="R2jZjn0u4yPaKpYKtleS-6">
          <mxGeometry x="-0.0925" y="11" width="160" relative="1" as="geometry">
            <mxPoint x="569" y="499" as="sourcePoint" />
            <mxPoint x="440" y="440" as="targetPoint" />
            <mxPoint as="offset" />
          </mxGeometry>
        </mxCell>
        <mxCell id="R2jZjn0u4yPaKpYKtleS-41" value="Extend" style="endArrow=open;endSize=12;dashed=1;html=1;rounded=0;" edge="1" parent="1" source="R2jZjn0u4yPaKpYKtleS-39" target="R2jZjn0u4yPaKpYKtleS-10">
          <mxGeometry x="-0.2856" y="3" width="160" relative="1" as="geometry">
            <mxPoint x="624" y="607" as="sourcePoint" />
            <mxPoint x="445" y="520" as="targetPoint" />
            <Array as="points" />
            <mxPoint x="-1" as="offset" />
          </mxGeometry>
        </mxCell>
        <mxCell id="R2jZjn0u4yPaKpYKtleS-43" value="" style="endArrow=classic;html=1;rounded=0;entryX=0.967;entryY=0.683;entryDx=0;entryDy=0;entryPerimeter=0;" edge="1" parent="1" source="R2jZjn0u4yPaKpYKtleS-15" target="R2jZjn0u4yPaKpYKtleS-6">
          <mxGeometry width="50" height="50" relative="1" as="geometry">
            <mxPoint x="720" y="610" as="sourcePoint" />
            <mxPoint x="770" y="560" as="targetPoint" />
          </mxGeometry>
        </mxCell>
        <mxCell id="R2jZjn0u4yPaKpYKtleS-44" value="" style="endArrow=classic;html=1;rounded=0;exitX=0;exitY=1;exitDx=0;exitDy=0;exitPerimeter=0;" edge="1" parent="1" source="R2jZjn0u4yPaKpYKtleS-15" target="R2jZjn0u4yPaKpYKtleS-11">
          <mxGeometry width="50" height="50" relative="1" as="geometry">
            <mxPoint x="490" y="660" as="sourcePoint" />
            <mxPoint x="500" y="610" as="targetPoint" />
          </mxGeometry>
        </mxCell>
        <mxCell id="R2jZjn0u4yPaKpYKtleS-45" value="" style="endArrow=classic;html=1;rounded=0;exitX=1;exitY=1;exitDx=0;exitDy=0;exitPerimeter=0;entryX=0.988;entryY=0.317;entryDx=0;entryDy=0;entryPerimeter=0;" edge="1" parent="1" source="R2jZjn0u4yPaKpYKtleS-15" target="R2jZjn0u4yPaKpYKtleS-12">
          <mxGeometry width="50" height="50" relative="1" as="geometry">
            <mxPoint x="800" y="590" as="sourcePoint" />
            <mxPoint x="460" y="598" as="targetPoint" />
          </mxGeometry>
        </mxCell>
        <mxCell id="R2jZjn0u4yPaKpYKtleS-46" value="" style="endArrow=classic;html=1;rounded=0;entryX=1;entryY=0.683;entryDx=0;entryDy=0;entryPerimeter=0;" edge="1" parent="1" source="R2jZjn0u4yPaKpYKtleS-15" target="R2jZjn0u4yPaKpYKtleS-13">
          <mxGeometry width="50" height="50" relative="1" as="geometry">
            <mxPoint x="810" y="600" as="sourcePoint" />
            <mxPoint x="453" y="679" as="targetPoint" />
          </mxGeometry>
        </mxCell>
        <mxCell id="R2jZjn0u4yPaKpYKtleS-48" value="" style="endArrow=none;html=1;rounded=0;" edge="1" parent="1">
          <mxGeometry width="50" height="50" relative="1" as="geometry">
            <mxPoint x="200" y="810" as="sourcePoint" />
            <mxPoint x="200" y="30" as="targetPoint" />
          </mxGeometry>
        </mxCell>
        <mxCell id="R2jZjn0u4yPaKpYKtleS-49" value="" style="endArrow=none;html=1;rounded=0;" edge="1" parent="1">
          <mxGeometry width="50" height="50" relative="1" as="geometry">
            <mxPoint x="770" y="810" as="sourcePoint" />
            <mxPoint x="770" y="30" as="targetPoint" />
          </mxGeometry>
        </mxCell>
        <mxCell id="R2jZjn0u4yPaKpYKtleS-50" value="" style="endArrow=none;html=1;rounded=0;" edge="1" parent="1">
          <mxGeometry width="50" height="50" relative="1" as="geometry">
            <mxPoint x="200" y="30" as="sourcePoint" />
            <mxPoint x="770" y="30" as="targetPoint" />
          </mxGeometry>
        </mxCell>
        <mxCell id="R2jZjn0u4yPaKpYKtleS-51" value="" style="endArrow=none;html=1;rounded=0;" edge="1" parent="1">
          <mxGeometry width="50" height="50" relative="1" as="geometry">
            <mxPoint x="200" y="810" as="sourcePoint" />
            <mxPoint x="770" y="810" as="targetPoint" />
            <Array as="points">
              <mxPoint x="510" y="810" />
            </Array>
          </mxGeometry>
        </mxCell>
        <mxCell id="R2jZjn0u4yPaKpYKtleS-52" value="&lt;b style=&quot;font-size: 16px;&quot;&gt;&lt;span style=&quot;white-space: pre;&quot;&gt;&#x9;&lt;/span&gt;NETWORK AUTOMATION SYSTEM&lt;/b&gt;" style="text;html=1;align=center;verticalAlign=middle;whiteSpace=wrap;rounded=0;" vertex="1" parent="1">
          <mxGeometry x="300" y="40" width="330" height="30" as="geometry" />
        </mxCell>
      </root>
    </mxGraphModel>
  </diagram>
</mxfile>
